<mxfile host="app.diagrams.net" modified="2024-04-01T15:38:04.373Z" agent="Mozilla/5.0 (Windows NT 10.0; Win64; x64) AppleWebKit/537.36 (KHTML, like Gecko) Chrome/122.0.0.0 Safari/537.36" etag="9k3iIQkET7LtFdg60oJv" version="24.2.1" type="github">
  <diagram name="Halaman-1" id="s6odWYtnzc3tq_8RDWhx">
    <mxGraphModel dx="1332" dy="771" grid="1" gridSize="10" guides="1" tooltips="1" connect="1" arrows="1" fold="1" page="1" pageScale="1" pageWidth="1169" pageHeight="827" math="0" shadow="0">
      <root>
        <mxCell id="0" />
        <mxCell id="1" parent="0" />
        <mxCell id="5ooC5CI0XXPNZEL45VDL-1" value="Entity" style="whiteSpace=wrap;html=1;align=center;" parent="1" vertex="1">
          <mxGeometry x="120" y="680" width="100" height="40" as="geometry" />
        </mxCell>
        <mxCell id="gpOwEk4-FQtOBYrFqCJH-1" value="Attribute" style="ellipse;whiteSpace=wrap;html=1;align=center;" vertex="1" parent="1">
          <mxGeometry x="60" y="730" width="100" height="40" as="geometry" />
        </mxCell>
        <mxCell id="gpOwEk4-FQtOBYrFqCJH-2" value="Attribute" style="ellipse;whiteSpace=wrap;html=1;align=center;" vertex="1" parent="1">
          <mxGeometry x="180" y="730" width="100" height="40" as="geometry" />
        </mxCell>
        <mxCell id="gpOwEk4-FQtOBYrFqCJH-3" value="Attribute" style="ellipse;whiteSpace=wrap;html=1;align=center;" vertex="1" parent="1">
          <mxGeometry x="120" y="770" width="100" height="40" as="geometry" />
        </mxCell>
        <mxCell id="gpOwEk4-FQtOBYrFqCJH-4" value="Entity" style="whiteSpace=wrap;html=1;align=center;" vertex="1" parent="1">
          <mxGeometry x="330" y="320" width="100" height="40" as="geometry" />
        </mxCell>
        <mxCell id="gpOwEk4-FQtOBYrFqCJH-5" value="Attribute" style="ellipse;whiteSpace=wrap;html=1;align=center;" vertex="1" parent="1">
          <mxGeometry x="270" y="374" width="100" height="40" as="geometry" />
        </mxCell>
        <mxCell id="gpOwEk4-FQtOBYrFqCJH-6" value="Attribute" style="ellipse;whiteSpace=wrap;html=1;align=center;" vertex="1" parent="1">
          <mxGeometry x="390" y="374" width="100" height="40" as="geometry" />
        </mxCell>
        <mxCell id="gpOwEk4-FQtOBYrFqCJH-7" value="Attribute" style="ellipse;whiteSpace=wrap;html=1;align=center;" vertex="1" parent="1">
          <mxGeometry x="390" y="430" width="100" height="40" as="geometry" />
        </mxCell>
        <mxCell id="gpOwEk4-FQtOBYrFqCJH-8" value="Attribute" style="ellipse;whiteSpace=wrap;html=1;align=center;" vertex="1" parent="1">
          <mxGeometry x="270" y="430" width="100" height="40" as="geometry" />
        </mxCell>
      </root>
    </mxGraphModel>
  </diagram>
</mxfile>
